<?xml version="1.0" standalone="no"?>
<!DOCTYPE svg PUBLIC "-//W3C//DTD SVG 20010904//EN"
 "http://www.w3.org/TR/2001/REC-SVG-20010904/DTD/svg10.dtd">
<svg version="1.0" xmlns="http://www.w3.org/2000/svg"
 width="230.000000pt" height="230.000000pt" viewBox="0 0 230.000000 230.000000"
 preserveAspectRatio="xMidYMid meet">

<g transform="translate(0.000000,230.000000) scale(0.100000,-0.100000)"
fill="#000000" stroke="none">
<path d="M993 1881 c-92 -32 -172 -100 -227 -193 -34 -59 -74 -177 -81 -242
-3 -28 -8 -70 -11 -93 l-5 -42 -57 20 c-70 25 -150 22 -190 -7 -15 -11 -38
-42 -52 -70 -23 -46 -25 -59 -26 -199 0 -83 -4 -157 -9 -165 -4 -8 -45 -67
-90 -130 -94 -132 -115 -169 -115 -205 0 -33 11 -32 67 11 25 19 76 50 112 69
36 18 113 60 171 94 58 34 112 61 120 61 8 0 50 -25 92 -55 218 -158 392 -116
449 109 6 25 13 46 15 46 2 0 25 -14 51 -30 79 -50 200 -93 264 -92 152 0 210
106 161 293 l-19 76 96 17 c168 29 301 95 390 191 54 59 82 122 89 201 6 74
-12 109 -84 172 -106 94 -275 81 -477 -36 -34 -19 -86 -48 -115 -64 l-52 -30
-26 59 c-73 166 -107 208 -193 236 -69 22 -181 22 -248 -2z m235 -47 c61 -25
92 -63 149 -183 l53 -114 38 6 c20 2 80 30 132 61 195 116 330 146 430 96 132
-67 131 -215 -1 -334 -69 -63 -175 -112 -297 -138 -159 -34 -166 -37 -179 -57
-9 -15 -7 -36 13 -107 29 -107 30 -159 4 -201 -47 -77 -175 -51 -380 77 -35
22 -69 39 -75 37 -11 -4 -21 -44 -30 -118 -7 -58 -49 -124 -91 -144 -70 -33
-169 -6 -278 74 -36 27 -78 52 -93 55 -30 8 -65 -8 -251 -113 -62 -35 -115
-61 -119 -58 -3 4 24 46 59 94 36 48 69 95 74 103 5 8 9 83 9 165 0 140 2 153
25 200 19 38 32 52 57 59 48 13 115 -1 167 -35 72 -48 80 -42 88 78 17 265
117 434 291 494 64 23 156 24 205 3z"/>
</g>
</svg>
