<svg width="34" height="31" viewBox="0 0 34 31" fill="none" xmlns="http://www.w3.org/2000/svg">
<path d="M5.33333 7H7C7.88405 7 8.7319 6.64881 9.35702 6.02369C9.98214 5.39857 10.3333 4.55072 10.3333 3.66667C10.3333 3.22464 10.5089 2.80072 10.8215 2.48816C11.134 2.1756 11.558 2 12 2H22C22.442 2 22.8659 2.1756 23.1785 2.48816C23.4911 2.80072 23.6667 3.22464 23.6667 3.66667C23.6667 4.55072 24.0179 5.39857 24.643 6.02369C25.2681 6.64881 26.1159 7 27 7H28.6667C29.5507 7 30.3986 7.35119 31.0237 7.97631C31.6488 8.60143 32 9.44928 32 10.3333V25.3333C32 26.2174 31.6488 27.0652 31.0237 27.6904C30.3986 28.3155 29.5507 28.6667 28.6667 28.6667H5.33333C4.44928 28.6667 3.60143 28.3155 2.97631 27.6904C2.35119 27.0652 2 26.2174 2 25.3333V10.3333C2 9.44928 2.35119 8.60143 2.97631 7.97631C3.60143 7.35119 4.44928 7 5.33333 7Z" stroke="#7196A7" stroke-width="2" stroke-linecap="round" stroke-linejoin="round"/>
<path d="M12 17C12 18.3261 12.5268 19.5979 13.4645 20.5355C14.4021 21.4732 15.6739 22 17 22C18.3261 22 19.5979 21.4732 20.5355 20.5355C21.4732 19.5979 22 18.3261 22 17C22 15.6739 21.4732 14.4021 20.5355 13.4645C19.5979 12.5268 18.3261 12 17 12C15.6739 12 14.4021 12.5268 13.4645 13.4645C12.5268 14.4021 12 15.6739 12 17Z" stroke="#7196A7" stroke-width="2" stroke-linecap="round" stroke-linejoin="round"/>
</svg>
