<svg width="24" height="24" viewBox="0 0 24 24" fill="none" xmlns="http://www.w3.org/2000/svg">
<path d="M22.9713 10.608C22.6359 8.19456 21.5163 5.9584 19.785 4.24391C18.0537 2.52942 15.8067 1.43172 13.3901 1.11991C10.9736 0.808097 8.52156 1.29947 6.41175 2.51833C4.30194 3.73719 2.65141 5.61592 1.71439 7.86513M1.02868 2.37948V7.86513H6.51433M1.02868 13.3508C1.36408 15.7642 2.48366 18.0004 4.21497 19.7149C5.94628 21.4294 8.19327 22.5271 10.6098 22.8389C13.0264 23.1507 15.4784 22.6593 17.5882 21.4405C19.698 20.2216 21.3486 18.3429 22.2856 16.0937M22.9713 21.5793V16.0937H17.4856" stroke="#161616" stroke-linecap="round" stroke-linejoin="round"/>
</svg>
