<svg width="620" height="322" viewBox="0 0 620 322" fill="none" xmlns="http://www.w3.org/2000/svg">
<rect width="620" height="322" rx="24" fill="url(#paint0_linear_66_663)"/>
<rect x="233.647" y="32.6454" width="10.2976" height="7.87125" fill="#409C85"/>
<rect width="10.2976" height="7.87125" transform="matrix(1 0 0 -1 233.647 290.001)" fill="#3E9981"/>
<rect x="136.94" y="51.1256" width="10.2976" height="7.87125" fill="#409B84"/>
<rect width="10.2976" height="7.87125" transform="matrix(1 0 0 -1 136.94 271.521)" fill="#52B8A9"/>
<rect x="221.559" y="51.1256" width="10.2976" height="7.87125" fill="#49A997"/>
<rect width="10.2976" height="7.87125" transform="matrix(1 0 0 -1 221.559 271.521)" fill="#2D7E5E"/>
<rect x="233.647" y="51.1256" width="10.2976" height="7.87125" fill="#277553"/>
<rect width="10.2976" height="7.87125" transform="matrix(1 0 0 -1 233.647 271.521)" fill="#50B5A5"/>
<rect x="136.94" y="69.6058" width="10.2976" height="7.87125" fill="#4CAE9C"/>
<rect width="10.2976" height="7.87125" transform="matrix(1 0 0 -1 136.94 253.04)" fill="#50B5A5"/>
<rect x="209.471" y="69.6058" width="10.2976" height="7.87125" fill="#52B7A8"/>
<rect width="10.2976" height="7.87125" transform="matrix(1 0 0 -1 209.471 253.04)" fill="#2F8061"/>
<rect x="221.559" y="69.6058" width="10.2976" height="7.87125" fill="#52B8A9"/>
<rect width="10.2976" height="7.87125" transform="matrix(1 0 0 -1 221.559 253.04)" fill="#2F8162"/>
<rect x="233.647" y="69.6058" width="10.2976" height="7.87125" fill="#3C957C"/>
<rect width="10.2976" height="7.87125" transform="matrix(1 0 0 -1 233.647 253.04)" fill="#328568"/>
<rect x="124.852" y="88.0858" width="10.2976" height="7.87125" fill="#25724F"/>
<rect width="10.2976" height="7.87125" transform="matrix(1 0 0 -1 124.852 234.56)" fill="#3D977F"/>
<rect x="136.94" y="88.0858" width="10.2976" height="7.87125" fill="#25724F"/>
<rect width="10.2976" height="7.87125" transform="matrix(1 0 0 -1 136.94 234.56)" fill="#53B8AA"/>
<rect x="161.117" y="88.0858" width="10.2976" height="7.87125" fill="#2D7E5E"/>
<rect width="10.2976" height="7.87125" transform="matrix(1 0 0 -1 161.117 234.56)" fill="#358B6F"/>
<rect x="209.471" y="88.0858" width="10.2976" height="7.87125" fill="#297756"/>
<rect width="10.2976" height="7.87125" transform="matrix(1 0 0 -1 209.471 234.56)" fill="#267351"/>
<rect x="221.559" y="88.0858" width="10.2976" height="7.87125" fill="#34886C"/>
<rect width="10.2976" height="7.87125" transform="matrix(1 0 0 -1 221.559 234.56)" fill="#24704D"/>
<rect x="233.647" y="88.0858" width="10.2976" height="7.87125" fill="#47A692"/>
<rect width="10.2976" height="7.87125" transform="matrix(1 0 0 -1 233.647 234.56)" fill="#3D977E"/>
<rect x="245.736" y="88.0858" width="10.2976" height="7.87125" fill="#3F9A82"/>
<rect width="10.2976" height="7.87125" transform="matrix(1 0 0 -1 245.736 234.56)" fill="#3C957C"/>
<rect x="124.852" y="106.567" width="10.2976" height="7.87125" fill="#3B947B"/>
<rect width="10.2976" height="7.87125" transform="matrix(1 0 0 -1 124.852 216.08)" fill="#378E73"/>
<rect x="136.94" y="106.567" width="10.2976" height="7.87125" fill="#4DB09F"/>
<rect width="10.2976" height="7.87125" transform="matrix(1 0 0 -1 136.94 216.08)" fill="#33886B"/>
<rect x="161.117" y="106.567" width="10.2976" height="7.87125" fill="#44A28D"/>
<rect width="10.2976" height="7.87125" transform="matrix(1 0 0 -1 161.117 216.08)" fill="#46A490"/>
<rect x="197.382" y="106.567" width="10.2976" height="7.87125" fill="#3D977F"/>
<rect width="10.2976" height="7.87125" transform="matrix(1 0 0 -1 197.382 216.08)" fill="#52B7A8"/>
<rect x="209.471" y="106.567" width="10.2976" height="7.87125" fill="#297756"/>
<rect width="10.2976" height="7.87125" transform="matrix(1 0 0 -1 209.471 216.08)" fill="#3D977F"/>
<rect x="221.559" y="106.567" width="10.2976" height="7.87125" fill="#43A08A"/>
<rect width="10.2976" height="7.87125" transform="matrix(1 0 0 -1 221.559 216.08)" fill="#2C7C5C"/>
<rect x="233.647" y="106.567" width="10.2976" height="7.87125" fill="#378D72"/>
<rect width="10.2976" height="7.87125" transform="matrix(1 0 0 -1 233.647 216.08)" fill="#2D7E5E"/>
<rect x="245.736" y="106.567" width="10.2976" height="7.87125" fill="#287654"/>
<rect width="10.2976" height="7.87125" transform="matrix(1 0 0 -1 245.736 216.08)" fill="#2D7D5D"/>
<rect x="124.852" y="125.047" width="10.2976" height="7.87125" fill="#48A996"/>
<rect width="10.2976" height="7.87125" transform="matrix(1 0 0 -1 124.852 197.599)" fill="#287655"/>
<rect x="136.94" y="125.047" width="10.2976" height="7.87125" fill="#399076"/>
<rect width="10.2976" height="7.87125" transform="matrix(1 0 0 -1 136.94 197.599)" fill="#3F9A83"/>
<rect x="149.028" y="125.047" width="10.2976" height="7.87125" fill="#2D7E5E"/>
<rect width="10.2976" height="7.87125" transform="matrix(1 0 0 -1 149.028 197.599)" fill="#399076"/>
<rect x="161.117" y="125.047" width="10.2976" height="7.87125" fill="#267351"/>
<rect width="10.2976" height="7.87125" transform="matrix(1 0 0 -1 161.117 197.599)" fill="#24704D"/>
<rect x="185.294" y="125.047" width="10.2976" height="7.87125" fill="#45A38E"/>
<rect width="10.2976" height="7.87125" transform="matrix(1 0 0 -1 185.294 197.599)" fill="#429F89"/>
<rect x="197.382" y="125.047" width="10.2976" height="7.87125" fill="#297756"/>
<rect width="10.2976" height="7.87125" transform="matrix(1 0 0 -1 197.382 197.599)" fill="#267351"/>
<rect x="209.471" y="125.047" width="10.2976" height="7.87125" fill="#3D977E"/>
<rect width="10.2976" height="7.87125" transform="matrix(1 0 0 -1 209.471 197.599)" fill="#51B6A7"/>
<rect x="221.559" y="125.047" width="10.2976" height="7.87125" fill="#399177"/>
<rect width="10.2976" height="7.87125" transform="matrix(1 0 0 -1 221.559 197.599)" fill="#277553"/>
<rect x="233.647" y="125.047" width="10.2976" height="7.87125" fill="#3C957C"/>
<rect width="10.2976" height="7.87125" transform="matrix(1 0 0 -1 233.647 197.599)" fill="#409B84"/>
<rect x="245.736" y="125.047" width="10.2976" height="7.87125" fill="#45A38E"/>
<rect width="10.2976" height="7.87125" transform="matrix(1 0 0 -1 245.736 197.599)" fill="#2B7A5A"/>
<rect x="257.824" y="125.047" width="10.2976" height="7.87125" fill="#3C967D"/>
<rect width="10.2976" height="7.87125" transform="matrix(1 0 0 -1 257.824 197.599)" fill="#287655"/>
<rect x="124.852" y="143.527" width="10.2976" height="7.87125" fill="#3D977E"/>
<rect width="10.2976" height="7.87125" transform="matrix(1 0 0 -1 124.852 179.119)" fill="#2F8162"/>
<rect x="136.94" y="143.527" width="10.2976" height="7.87125" fill="#44A28D"/>
<rect width="10.2976" height="7.87125" transform="matrix(1 0 0 -1 136.94 179.119)" fill="#4AAB99"/>
<rect x="149.028" y="143.527" width="10.2976" height="7.87125" fill="#4EB2A1"/>
<rect width="10.2976" height="7.87125" transform="matrix(1 0 0 -1 149.028 179.119)" fill="#236E4A"/>
<rect x="161.117" y="143.527" width="10.2976" height="7.87125" fill="#3E9880"/>
<rect width="10.2976" height="7.87125" transform="matrix(1 0 0 -1 161.117 179.119)" fill="#4CAF9D"/>
<rect x="173.206" y="143.527" width="10.2976" height="7.87125" fill="#3F9A83"/>
<rect width="10.2976" height="7.87125" transform="matrix(1 0 0 -1 173.206 179.119)" fill="#308264"/>
<rect x="185.294" y="143.527" width="10.2976" height="7.87125" fill="#45A38E"/>
<rect width="10.2976" height="7.87125" transform="matrix(1 0 0 -1 185.294 179.119)" fill="#43A08B"/>
<rect x="197.382" y="143.527" width="10.2976" height="7.87125" fill="#277553"/>
<rect width="10.2976" height="7.87125" transform="matrix(1 0 0 -1 197.382 179.119)" fill="#3E9880"/>
<rect x="209.471" y="143.527" width="10.2976" height="7.87125" fill="#3A9178"/>
<rect width="10.2976" height="7.87125" transform="matrix(1 0 0 -1 209.471 179.119)" fill="#2E7F5F"/>
<rect x="221.559" y="143.527" width="10.2976" height="7.87125" fill="#328669"/>
<rect width="10.2976" height="7.87125" transform="matrix(1 0 0 -1 221.559 179.119)" fill="#2C7C5B"/>
<rect x="233.647" y="143.527" width="10.2976" height="7.87125" fill="#419D87"/>
<rect width="10.2976" height="7.87125" transform="matrix(1 0 0 -1 233.647 179.119)" fill="#43A08A"/>
<rect x="245.736" y="143.527" width="10.2976" height="7.87125" fill="#53B9AB"/>
<rect width="10.2976" height="7.87125" transform="matrix(1 0 0 -1 245.736 179.119)" fill="#4CAE9C"/>
<rect x="257.824" y="143.527" width="10.2976" height="7.87125" fill="#52B7A8"/>
<rect width="10.2976" height="7.87125" transform="matrix(1 0 0 -1 257.824 179.119)" fill="#2F8162"/>
<rect x="269.913" y="143.527" width="10.2976" height="7.87125" fill="#236F4B"/>
<rect width="10.2976" height="7.87125" transform="matrix(1 0 0 -1 269.913 179.119)" fill="#287654"/>
<rect x="233.647" y="41.8854" width="10.2976" height="7.87125" fill="#287654"/>
<rect width="10.2976" height="7.87125" transform="matrix(1 0 0 -1 233.647 280.761)" fill="#267351"/>
<rect x="136.94" y="60.3664" width="10.2976" height="7.87125" fill="#388F75"/>
<rect width="10.2976" height="7.87125" transform="matrix(1 0 0 -1 136.94 262.28)" fill="#51B6A7"/>
<rect x="221.559" y="60.3664" width="10.2976" height="7.87125" fill="#48A996"/>
<rect width="10.2976" height="7.87125" transform="matrix(1 0 0 -1 221.559 262.28)" fill="#53B9AB"/>
<rect x="233.647" y="60.3664" width="10.2976" height="7.87125" fill="#2F8263"/>
<rect width="10.2976" height="7.87125" transform="matrix(1 0 0 -1 233.647 262.28)" fill="#2B7B5A"/>
<rect x="124.852" y="78.8458" width="10.2976" height="7.87125" fill="#47A693"/>
<rect width="10.2976" height="7.87125" transform="matrix(1 0 0 -1 124.852 243.801)" fill="#4EB2A1"/>
<rect x="136.94" y="78.8458" width="10.2976" height="7.87125" fill="#297857"/>
<rect width="10.2976" height="7.87125" transform="matrix(1 0 0 -1 136.94 243.801)" fill="#4AAB99"/>
<rect x="161.117" y="78.8458" width="10.2976" height="7.87125" fill="#2D7D5D"/>
<rect width="10.2976" height="7.87125" transform="matrix(1 0 0 -1 161.117 243.801)" fill="#46A591"/>
<rect x="209.471" y="78.8458" width="10.2976" height="7.87125" fill="#24704C"/>
<rect width="10.2976" height="7.87125" transform="matrix(1 0 0 -1 209.471 243.801)" fill="#2A7958"/>
<rect x="221.559" y="78.8458" width="10.2976" height="7.87125" fill="#33886B"/>
<rect width="10.2976" height="7.87125" transform="matrix(1 0 0 -1 221.559 243.801)" fill="#2A7958"/>
<rect x="233.647" y="78.8458" width="10.2976" height="7.87125" fill="#419D87"/>
<rect width="10.2976" height="7.87125" transform="matrix(1 0 0 -1 233.647 243.801)" fill="#4DB09F"/>
<rect x="124.852" y="97.3267" width="10.2976" height="7.87125" fill="#4BAD9B"/>
<rect width="10.2976" height="7.87125" transform="matrix(1 0 0 -1 124.852 225.32)" fill="#52B8A9"/>
<rect x="136.94" y="97.3267" width="10.2976" height="7.87125" fill="#3B947B"/>
<rect width="10.2976" height="7.87125" transform="matrix(1 0 0 -1 136.94 225.32)" fill="#2D7D5D"/>
<rect x="161.117" y="97.3267" width="10.2976" height="7.87125" fill="#409C85"/>
<rect width="10.2976" height="7.87125" transform="matrix(1 0 0 -1 161.117 225.32)" fill="#409B84"/>
<rect x="209.471" y="97.3267" width="10.2976" height="7.87125" fill="#399177"/>
<rect width="10.2976" height="7.87125" transform="matrix(1 0 0 -1 209.471 225.32)" fill="#3E9981"/>
<rect x="221.559" y="97.3267" width="10.2976" height="7.87125" fill="#409C85"/>
<rect width="10.2976" height="7.87125" transform="matrix(1 0 0 -1 221.559 225.32)" fill="#388F75"/>
<rect x="233.647" y="97.3267" width="10.2976" height="7.87125" fill="#46A591"/>
<rect width="10.2976" height="7.87125" transform="matrix(1 0 0 -1 233.647 225.32)" fill="#378D72"/>
<rect x="245.736" y="97.3267" width="10.2976" height="7.87125" fill="#46A591"/>
<rect width="10.2976" height="7.87125" transform="matrix(1 0 0 -1 245.736 225.32)" fill="#2C7C5B"/>
<rect x="124.852" y="115.807" width="10.2976" height="7.87125" fill="#3A9279"/>
<rect width="10.2976" height="7.87125" transform="matrix(1 0 0 -1 124.852 206.839)" fill="#34896D"/>
<rect x="136.94" y="115.807" width="10.2976" height="7.87125" fill="#388F75"/>
<rect width="10.2976" height="7.87125" transform="matrix(1 0 0 -1 136.94 206.839)" fill="#3D977E"/>
<rect x="161.117" y="115.807" width="10.2976" height="7.87125" fill="#297857"/>
<rect width="10.2976" height="7.87125" transform="matrix(1 0 0 -1 161.117 206.839)" fill="#358B6F"/>
<rect x="197.382" y="115.807" width="10.2976" height="7.87125" fill="#4BAC9B"/>
<rect width="10.2976" height="7.87125" transform="matrix(1 0 0 -1 197.382 206.839)" fill="#277452"/>
<rect x="209.471" y="115.807" width="10.2976" height="7.87125" fill="#318567"/>
<rect width="10.2976" height="7.87125" transform="matrix(1 0 0 -1 209.471 206.839)" fill="#24704C"/>
<rect x="221.559" y="115.807" width="10.2976" height="7.87125" fill="#44A18C"/>
<rect width="10.2976" height="7.87125" transform="matrix(1 0 0 -1 221.559 206.839)" fill="#44A28D"/>
<rect x="233.647" y="115.807" width="10.2976" height="7.87125" fill="#399076"/>
<rect width="10.2976" height="7.87125" transform="matrix(1 0 0 -1 233.647 206.839)" fill="#50B4A4"/>
<rect x="245.736" y="115.807" width="10.2976" height="7.87125" fill="#4CAF9D"/>
<rect width="10.2976" height="7.87125" transform="matrix(1 0 0 -1 245.736 206.839)" fill="#2E7F60"/>
<rect x="257.824" y="115.807" width="10.2976" height="7.87125" fill="#2C7C5B"/>
<rect width="10.2976" height="7.87125" transform="matrix(1 0 0 -1 257.824 206.839)" fill="#419D86"/>
<rect x="124.852" y="134.288" width="10.2976" height="7.87125" fill="#34886C"/>
<rect width="10.2976" height="7.87125" transform="matrix(1 0 0 -1 124.852 188.359)" fill="#51B6A7"/>
<rect x="136.94" y="134.288" width="10.2976" height="7.87125" fill="#47A794"/>
<rect width="10.2976" height="7.87125" transform="matrix(1 0 0 -1 136.94 188.359)" fill="#34896D"/>
<rect x="149.028" y="134.288" width="10.2976" height="7.87125" fill="#4EB1A0"/>
<rect width="10.2976" height="7.87125" transform="matrix(1 0 0 -1 149.028 188.359)" fill="#53B8AA"/>
<rect x="161.117" y="134.288" width="10.2976" height="7.87125" fill="#3A9178"/>
<rect width="10.2976" height="7.87125" transform="matrix(1 0 0 -1 161.117 188.359)" fill="#45A38F"/>
<rect x="185.294" y="134.288" width="10.2976" height="7.87125" fill="#47A794"/>
<rect width="10.2976" height="7.87125" transform="matrix(1 0 0 -1 185.294 188.359)" fill="#2E7F5F"/>
<rect x="197.382" y="134.288" width="10.2976" height="7.87125" fill="#52B8A9"/>
<rect width="10.2976" height="7.87125" transform="matrix(1 0 0 -1 197.382 188.359)" fill="#399076"/>
<rect x="209.471" y="134.288" width="10.2976" height="7.87125" fill="#3A9279"/>
<rect width="10.2976" height="7.87125" transform="matrix(1 0 0 -1 209.471 188.359)" fill="#3C957C"/>
<rect x="221.559" y="134.288" width="10.2976" height="7.87125" fill="#3F9A82"/>
<rect width="10.2976" height="7.87125" transform="matrix(1 0 0 -1 221.559 188.359)" fill="#2B7A5A"/>
<rect x="233.647" y="134.288" width="10.2976" height="7.87125" fill="#388E74"/>
<rect width="10.2976" height="7.87125" transform="matrix(1 0 0 -1 233.647 188.359)" fill="#47A692"/>
<rect x="245.736" y="134.288" width="10.2976" height="7.87125" fill="#378E73"/>
<rect width="10.2976" height="7.87125" transform="matrix(1 0 0 -1 245.736 188.359)" fill="#358A6E"/>
<rect x="257.824" y="134.288" width="10.2976" height="7.87125" fill="#24704C"/>
<rect width="10.2976" height="7.87125" transform="matrix(1 0 0 -1 257.824 188.359)" fill="#47A693"/>
<rect x="124.852" y="152.767" width="10.2976" height="7.87125" fill="#2B7B5A"/>
<rect width="10.2976" height="7.87125" transform="matrix(1 0 0 -1 124.852 169.879)" fill="#50B4A4"/>
<rect x="136.94" y="152.767" width="10.2976" height="7.87125" fill="#25714E"/>
<rect width="10.2976" height="7.87125" transform="matrix(1 0 0 -1 136.94 169.879)" fill="#368B70"/>
<rect x="149.028" y="152.767" width="10.2976" height="7.87125" fill="#2D7D5D"/>
<rect width="10.2976" height="7.87125" transform="matrix(1 0 0 -1 149.028 169.879)" fill="#3F9A82"/>
<rect x="161.117" y="152.767" width="10.2976" height="7.87125" fill="#45A38E"/>
<rect width="10.2976" height="7.87125" transform="matrix(1 0 0 -1 161.117 169.879)" fill="#43A08A"/>
<rect x="173.206" y="152.767" width="10.2976" height="7.87125" fill="#25714E"/>
<rect width="10.2976" height="7.87125" transform="matrix(1 0 0 -1 173.206 169.879)" fill="#267351"/>
<rect x="185.294" y="152.767" width="10.2976" height="7.87125" fill="#4AAC9A"/>
<rect width="10.2976" height="7.87125" transform="matrix(1 0 0 -1 185.294 169.879)" fill="#287655"/>
<rect x="197.382" y="152.767" width="10.2976" height="7.87125" fill="#47A794"/>
<rect width="10.2976" height="7.87125" transform="matrix(1 0 0 -1 197.382 169.879)" fill="#318466"/>
<rect x="209.471" y="152.767" width="10.2976" height="7.87125" fill="#2F8263"/>
<rect width="10.2976" height="7.87125" transform="matrix(1 0 0 -1 209.471 169.879)" fill="#2F8263"/>
<rect x="221.559" y="152.767" width="10.2976" height="7.87125" fill="#48A996"/>
<rect width="10.2976" height="7.87125" transform="matrix(1 0 0 -1 221.559 169.879)" fill="#45A38F"/>
<rect x="233.647" y="152.767" width="10.2976" height="7.87125" fill="#267350"/>
<rect width="10.2976" height="7.87125" transform="matrix(1 0 0 -1 233.647 169.879)" fill="#4FB3A3"/>
<rect x="245.736" y="152.767" width="10.2976" height="7.87125" fill="#368B70"/>
<rect width="10.2976" height="7.87125" transform="matrix(1 0 0 -1 245.736 169.879)" fill="#3B947B"/>
<rect x="257.824" y="152.767" width="10.2976" height="7.87125" fill="#34896D"/>
<rect width="10.2976" height="7.87125" transform="matrix(1 0 0 -1 257.824 169.879)" fill="#24704C"/>
<rect x="269.913" y="152.767" width="10.2976" height="7.87125" fill="#2E7F60"/>
<rect width="10.2976" height="7.87125" transform="matrix(1 0 0 -1 269.913 169.879)" fill="#51B6A7"/>
<rect x="282.002" y="152.767" width="10.2976" height="7.87125" fill="#267351"/>
<rect width="10.2976" height="7.87125" transform="matrix(1 0 0 -1 282.002 169.879)" fill="#49AA98"/>
<path d="M297.854 161.206C307.423 181.945 315.462 208.793 342.688 208.793C381.454 208.793 391.674 137.589 427.915 137.589C456.923 137.589 455.91 173.719 509 173.719" stroke="url(#paint1_linear_66_663)" stroke-width="2" stroke-linecap="round"/>
<path d="M297.854 160.126C307.423 138.926 315.462 111.481 342.688 111.481C381.454 111.481 391.674 184.267 427.915 184.267C456.923 184.267 455.91 147.334 509 147.334" stroke="url(#paint2_linear_66_663)" stroke-width="2" stroke-linecap="round"/>
<path d="M297.854 161.043C300.913 169.023 310.654 184.982 325.15 184.982C354.556 184.982 364.947 128.886 392.702 128.886C433.187 128.886 427.338 234.11 465.529 234.11" stroke="url(#paint3_linear_66_663)" stroke-width="2" stroke-linecap="round"/>
<path d="M297.854 160.813C300.913 152.834 310.654 136.875 325.15 136.875C354.556 136.875 364.947 192.97 392.702 192.97C433.187 192.97 427.338 87.7464 465.529 87.7464" stroke="url(#paint4_linear_66_663)" stroke-width="2" stroke-linecap="round"/>
<defs>
<linearGradient id="paint0_linear_66_663" x1="6.51667e-06" y1="161" x2="620" y2="161" gradientUnits="userSpaceOnUse">
<stop stop-color="#171717"/>
<stop offset="0.53125" stop-color="#236E4A"/>
<stop offset="1" stop-color="#53B9AB"/>
</linearGradient>
<linearGradient id="paint1_linear_66_663" x1="297.854" y1="173.191" x2="509" y2="173.191" gradientUnits="userSpaceOnUse">
<stop stop-color="#53B9AB"/>
<stop offset="1" stop-color="#236E4A"/>
</linearGradient>
<linearGradient id="paint2_linear_66_663" x1="297.854" y1="147.874" x2="509" y2="147.874" gradientUnits="userSpaceOnUse">
<stop stop-color="#53B9AB"/>
<stop offset="1" stop-color="#236E4A"/>
</linearGradient>
<linearGradient id="paint3_linear_66_663" x1="297.854" y1="181.498" x2="465.529" y2="181.498" gradientUnits="userSpaceOnUse">
<stop stop-color="#53B9AB"/>
<stop offset="1" stop-color="#236E4A"/>
</linearGradient>
<linearGradient id="paint4_linear_66_663" x1="297.854" y1="140.358" x2="465.529" y2="140.358" gradientUnits="userSpaceOnUse">
<stop stop-color="#53B9AB"/>
<stop offset="1" stop-color="#236E4A"/>
</linearGradient>
</defs>
</svg>
